<svg xmlns="http://www.w3.org/2000/svg" viewBox="0 0 47 47">
  <defs>
    <style>
      .cls-1 {
        fill: #fff;
        stroke: #d69b53;
        stroke-width: 3px;
      }

      .cls-2 {
        fill: #d69b53;
      }

      .cls-3 {
        stroke: none;
      }

      .cls-4 {
        fill: none;
      }
    </style>
  </defs>
  <g id="Symbol_25_1" data-name="Symbol 25 – 1" transform="translate(-1088 -338)">
    <g id="Ellipse_7" data-name="Ellipse 7" class="cls-1" transform="translate(1088 338)">
      <circle class="cls-3" cx="23.5" cy="23.5" r="23.5"/>
      <circle class="cls-4" cx="23.5" cy="23.5" r="22"/>
    </g>
    <g id="Group_5" data-name="Group 5" transform="translate(1099.941 348)">
      <path id="Path_21" data-name="Path 21" class="cls-2" d="M22.261,13.7H20.505a.509.509,0,0,0,0,1.018h.534l-3.868,3.843H5.643L1.775,14.718h12.47a.509.509,0,0,0,0-1.018H.553a.5.5,0,0,0-.458.305.565.565,0,0,0,.1.56l4.861,4.861h0l5.828,5.828v9.391h-4a.509.509,0,0,0,0,1.018h9.06a.509.509,0,0,0,0-1.018H11.929V25.279l5.828-5.828h0l4.861-4.861a.5.5,0,0,0,.1-.56A.489.489,0,0,0,22.261,13.7Zm-6.108,5.879L11.42,24.338,6.661,19.579Z" transform="translate(0 -10.213)"/>
      <path id="Path_22" data-name="Path 22" class="cls-2" d="M57.821,2.01h-3.13a2.521,2.521,0,0,0-4.937,0H47.209a.509.509,0,0,0,0,1.018h2.545a2.521,2.521,0,0,0,4.937,0h3.13a.509.509,0,0,0,0-1.018Zm-5.6,2.01a1.485,1.485,0,0,1-1.4-.993h1.4a.509.509,0,0,0,0-1.018h-1.4a1.485,1.485,0,0,1,1.4-.993,1.5,1.5,0,1,1,0,3Z" transform="translate(-34.771)"/>
    </g>
  </g>
</svg>
