<svg xmlns="http://www.w3.org/2000/svg" viewBox="0 0 47 47">
  <defs>
    <style>
      .cls-1 {
        fill: #fff;
        stroke: #d69b53;
        stroke-width: 3px;
      }

      .cls-2 {
        fill: #d69b53;
      }

      .cls-3 {
        stroke: none;
      }

      .cls-4 {
        fill: none;
      }
    </style>
  </defs>
  <g id="Symbol_26_1" data-name="Symbol 26 – 1" transform="translate(-1166 -520)">
    <g id="Ellipse_4" data-name="Ellipse 4" class="cls-1" transform="translate(1166 520)">
      <circle class="cls-3" cx="23.5" cy="23.5" r="23.5"/>
      <circle class="cls-4" cx="23.5" cy="23.5" r="22"/>
    </g>
    <g id="Group_4" data-name="Group 4" transform="translate(1176 534)">
      <path id="Path_17" data-name="Path 17" class="cls-2" d="M26.019,1.9a9.205,9.205,0,1,0,9.219,9.219A9.239,9.239,0,0,0,26.019,1.9Zm0,17.313a8.121,8.121,0,1,1,8.121-8.094A8.138,8.138,0,0,1,26.019,19.213Z" transform="translate(-12.191 -1.379)"/>
      <path id="Path_18" data-name="Path 18" class="cls-2" d="M34.219,13.1a6.119,6.119,0,1,0,6.119,6.119A6.124,6.124,0,0,0,34.219,13.1Zm0,11.167a5.021,5.021,0,1,1,5.021-5.021A5.023,5.023,0,0,1,34.219,24.267Z" transform="translate(-20.39 -9.506)"/>
      <path id="Path_19" data-name="Path 19" class="cls-2" d="M4.692,3.594V.549a.549.549,0,1,0-1.1,0V3.594a1.24,1.24,0,0,1-.713,1.125V.549a.549.549,0,0,0-1.1,0v4.17A1.263,1.263,0,0,1,1.1,3.594V.549a.549.549,0,0,0-1.1,0V3.594A2.35,2.35,0,0,0,1.811,5.872V18.9a.549.549,0,1,0,1.1,0V5.872A2.355,2.355,0,0,0,4.692,3.594Z"/>
      <path id="Path_20" data-name="Path 20" class="cls-2" d="M88.1,3.655C88.1,1.872,87.112.5,85.85.5S83.6,1.9,83.6,3.655a3.1,3.1,0,0,0,1.7,3.073v12.4a.549.549,0,1,0,1.1,0V6.728A3.1,3.1,0,0,0,88.1,3.655ZM85.85,5.741c-.549,0-1.152-.851-1.152-2.058s.6-2.058,1.152-2.058S87,2.475,87,3.683,86.4,5.741,85.85,5.741Z" transform="translate(-60.662 -0.363)"/>
    </g>
  </g>
</svg>
