<svg xmlns="http://www.w3.org/2000/svg" viewBox="0 0 47 47">
  <defs>
    <style>
      .cls-1 {
        fill: #fff;
        stroke: #d69b53;
        stroke-width: 3px;
      }

      .cls-2 {
        fill: #d69b53;
      }

      .cls-3 {
        stroke: none;
      }

      .cls-4 {
        fill: none;
      }
    </style>
  </defs>
  <g id="Symbol_29_1" data-name="Symbol 29 – 1" transform="translate(-740 -338)">
    <g id="Ellipse_6" data-name="Ellipse 6" class="cls-1" transform="translate(740 338)">
      <circle class="cls-3" cx="23.5" cy="23.5" r="23.5"/>
      <circle class="cls-4" cx="23.5" cy="23.5" r="22"/>
    </g>
    <path id="Path_28" data-name="Path 28" class="cls-2" d="M11.952,2.988a5.414,5.414,0,0,0-1.295.2A5.661,5.661,0,0,0,5.578,0,5.569,5.569,0,0,0,0,5.578a5.63,5.63,0,0,0,3.137,5.03L7.719,24.552a.643.643,0,0,0,.6.448.626.626,0,0,0,.6-.448L13.4,10.906a4.092,4.092,0,0,0-1.444-7.918ZM8.317,22.361,6.823,17.829,11.4,12.9ZM4.631,11.106a6.131,6.131,0,0,0,1,.1,5.532,5.532,0,0,0,3.436-1.2A4.019,4.019,0,0,0,11.4,11.155l-4.98,5.329ZM2.54,8.665a4.332,4.332,0,0,1,3.038-7.42,4.393,4.393,0,0,1,3.934,2.49c.1.2.149.4.249.6.05.249.1.448.149.7,0,.149.05.349.05.548a4.342,4.342,0,0,1-.7,2.39.049.049,0,0,1-.05.05,1.95,1.95,0,0,1-.4.5c-.05.05-.05.1-.1.1l-.349.349c-.149.1-.249.2-.4.3a4.4,4.4,0,0,1-2.291.647,4.627,4.627,0,0,1-1.444-.249,5.533,5.533,0,0,1-.8-.349A2.956,2.956,0,0,1,2.54,8.665Zm10.608,1a.708.708,0,0,1-.3.1c-.05,0-.149.05-.2.05-.1,0-.149.05-.249.05a1.535,1.535,0,0,1-.5.05,2.959,2.959,0,0,1-1.843-.647.687.687,0,0,0-.2-.149c.1-.149.249-.3.349-.448a3.714,3.714,0,0,0,.349-.6,5.659,5.659,0,0,0,.548-2.44,5.017,5.017,0,0,0-.149-1.245,2.828,2.828,0,0,1,3.735,2.689,2.869,2.869,0,0,1-.8,1.992A1.812,1.812,0,0,1,13.147,9.661Z" transform="translate(755 349)"/>
  </g>
</svg>
