<svg xmlns="http://www.w3.org/2000/svg" viewBox="0 0 47 47">
  <defs>
    <style>
      .cls-1 {
        fill: #fff;
        stroke: #d69b53;
        stroke-width: 3px;
      }

      .cls-2 {
        fill: #d69b53;
      }

      .cls-3 {
        stroke: none;
      }

      .cls-4 {
        fill: none;
      }
    </style>
  </defs>
  <g id="Symbol_28_1" data-name="Symbol 28 – 1" transform="translate(-663 -520)">
    <g id="Ellipse_5" data-name="Ellipse 5" class="cls-1" transform="translate(663 520)">
      <circle class="cls-3" cx="23.5" cy="23.5" r="23.5"/>
      <circle class="cls-4" cx="23.5" cy="23.5" r="22"/>
    </g>
    <g id="Group_11" data-name="Group 11" transform="translate(670 533.438)">
      <g id="Group_6" data-name="Group 6" transform="translate(10.587 -0.078)">
        <path id="Path_23" data-name="Path 23" class="cls-2" d="M50.149,19.136a.461.461,0,0,1-.239-.072c-.191-.12-4.9-2.749-5.546-7.673-.478-3.61,1.363-7.41,5.426-11.331A.51.51,0,0,1,50.46.037c.215.215,5.331,4.614,5.426,10.183.12,5.641-5.283,8.725-5.522,8.845A.334.334,0,0,1,50.149,19.136Zm0-18.024c-3.61,3.562-5.235,6.98-4.8,10.159.5,3.825,3.873,6.191,4.8,6.789,1-.645,4.853-3.394,4.781-7.817C54.835,5.893,51.273,2.164,50.149,1.112Z" transform="translate(-44.29 0.078)"/>
      </g>
      <g id="Group_7" data-name="Group 7" transform="translate(16.253 1.437)">
        <path id="Path_24" data-name="Path 24" class="cls-2" d="M68.472,23.959a.489.489,0,0,1-.478-.43.505.505,0,0,1,.43-.55c4.231-.478,7.219-2.08,8.869-4.709,2.462-3.92,1.339-9.132.884-10.8-1.649.861-3.849,2.032-4.135,2.223a.33.33,0,0,1-.1.072.507.507,0,0,1-.669-.215c-.215-.43.191-.669.406-.765.12-.072.311-.167.55-.311.454-.239,1.052-.55,1.649-.884,1.2-.622,2.39-1.267,2.39-1.267a.5.5,0,0,1,.693.263c.1.287,2.414,7.1-.813,12.215-1.817,2.892-5.044,4.637-9.586,5.163ZM74.137,9.473a.5.5,0,0,1-.1.143A.22.22,0,0,0,74.137,9.473Zm0-.406a.443.443,0,0,1,.048.167A.346.346,0,0,0,74.137,9.067Z" transform="translate(-67.992 -6.261)"/>
      </g>
      <g id="Group_8" data-name="Group 8" transform="translate(4.698 1.437)">
        <path id="Path_25" data-name="Path 25" class="cls-2" d="M31,23.959h-.048c-4.542-.526-7.769-2.271-9.586-5.163-3.227-5.139-.908-11.928-.813-12.215a.431.431,0,0,1,.287-.287.48.48,0,0,1,.406.024s1.2.622,2.39,1.267c.6.311,1.2.645,1.649.884.215.12.406.215.55.311.191.12.622.335.406.765a.507.507,0,0,1-.669.215c-.024-.024-.072-.048-.1-.072-.311-.191-2.51-1.363-4.135-2.223-.454,1.7-1.578,6.908.884,10.8,1.649,2.63,4.637,4.231,8.869,4.709a.505.505,0,0,1,.43.55A.539.539,0,0,1,31,23.959ZM25.331,9.473a.5.5,0,0,0,.1.143A.22.22,0,0,1,25.331,9.473Zm0-.406a.443.443,0,0,0-.048.167A1.523,1.523,0,0,1,25.331,9.067Z" transform="translate(-19.655 -6.261)"/>
      </g>
      <g id="Group_9" data-name="Group 9" transform="translate(0 10.794)">
        <path id="Path_26" data-name="Path 26" class="cls-2" d="M13.243,54.747c-6.717,0-9.968-2.319-11.5-4.279A8.035,8.035,0,0,1,0,46a.649.649,0,0,1,.143-.406A.535.535,0,0,1,.5,45.4H3.729c.263,0,.5.335.5.6s-.215.6-.5.6h-2.7a8.277,8.277,0,0,0,1.53,3.347C4.59,52.5,8.343,53.767,13.41,53.767h0a.5.5,0,0,1,.5.478.479.479,0,0,1-.478.478A.526.526,0,0,1,13.243,54.747Z" transform="translate(0 -45.4)"/>
      </g>
      <g id="Group_10" data-name="Group 10" transform="translate(19.146 10.817)">
        <path id="Path_27" data-name="Path 27" class="cls-2" d="M80.74,54.679h-.167c-.263,0-.5-.143-.478-.406,0-.263.215-.406.5-.406h0c.048,0,.12-.072.167-.072,4.972,0,8.677-1.363,10.685-3.9a7.462,7.462,0,0,0,1.53-3.442H90.3a.5.5,0,0,1-.5-.478.485.485,0,0,1,.5-.478h3.227a.5.5,0,0,1,.359.12.472.472,0,0,1,.143.335A7.991,7.991,0,0,1,92.286,50.4C90.708,52.361,87.457,54.679,80.74,54.679Z" transform="translate(-80.093 -45.5)"/>
      </g>
    </g>
  </g>
</svg>
